<svg xmlns="http://www.w3.org/2000/svg" xmlns:xlink="http://www.w3.org/1999/xlink" width="500" zoomAndPan="magnify" viewBox="0 0 375 374.999991" height="500" preserveAspectRatio="xMidYMid meet" version="1.0"><defs><g/><clipPath id="742cffcbf5"><path d="M 64.421875 182.546875 L 310.578125 182.546875 L 310.578125 212.996094 L 64.421875 212.996094 Z M 64.421875 182.546875 " clip-rule="nonzero"/></clipPath></defs><rect x="-37.5" width="450" fill="#ffffff" y="-37.499999" height="449.999989" fill-opacity="1"/><rect x="-37.5" width="450" fill="#f4ece0" y="-37.499999" height="449.999989" fill-opacity="1"/><g fill="#000000" fill-opacity="1"><g transform="translate(76.187513, 239.999984)"><g><path d="M 1.203125 0 L 1.203125 -1.5 L 4.953125 -2.84375 C 6.953125 -3.644531 8.5 -4.617188 9.59375 -5.765625 C 10.695312 -6.921875 11.597656 -8.550781 12.296875 -10.65625 L 43.203125 -99.296875 L 55.953125 -99.296875 L 86.40625 -10.046875 C 87.195312 -7.847656 88.09375 -6.171875 89.09375 -5.015625 C 90.09375 -3.867188 91.644531 -2.894531 93.75 -2.09375 L 95.546875 -1.5 L 95.546875 0 L 57.453125 0 L 57.453125 -1.5 L 59.703125 -2.25 C 61.796875 -3.050781 63.066406 -4.175781 63.515625 -5.625 C 63.972656 -7.070312 63.898438 -8.796875 63.296875 -10.796875 L 56.25 -32.40625 L 22.953125 -32.40625 L 15.75 -11.25 C 15.050781 -9.050781 14.828125 -7.300781 15.078125 -6 C 15.328125 -4.695312 16.5 -3.644531 18.59375 -2.84375 L 21.90625 -1.5 L 21.90625 0 Z M 24 -35.40625 L 55.34375 -35.40625 L 40.203125 -82.046875 Z M 24 -35.40625 "/></g></g></g><g fill="#000000" fill-opacity="1"><g transform="translate(180.137534, 239.999984)"><g><path d="M 3 0 L 3 -1.5 L 6 -2.546875 C 9.394531 -3.648438 11.09375 -6.5 11.09375 -11.09375 L 11.09375 -87.90625 C 11.09375 -89.90625 10.867188 -91.503906 10.421875 -92.703125 C 9.972656 -93.898438 8.800781 -94.898438 6.90625 -95.703125 L 3 -97.5 L 3 -99 L 31.953125 -99 L 59.703125 -26.40625 L 85.796875 -99 L 115.34375 -99 L 115.34375 -97.5 L 112.953125 -96.59375 C 111.046875 -95.894531 109.742188 -94.921875 109.046875 -93.671875 C 108.347656 -92.421875 108 -90.796875 108 -88.796875 L 108 -10.34375 C 108 -8.34375 108.25 -6.789062 108.75 -5.6875 C 109.25 -4.59375 110.445312 -3.644531 112.34375 -2.84375 L 115.34375 -1.5 L 115.34375 0 L 78 0 L 78 -1.5 L 81.15625 -2.84375 C 83.050781 -3.644531 84.25 -4.59375 84.75 -5.6875 C 85.25 -6.789062 85.5 -8.34375 85.5 -10.34375 L 85.5 -44.09375 L 85.796875 -87 L 54.453125 0 L 46.953125 0 L 14.25 -85.953125 L 14.703125 -48.59375 L 14.703125 -10.796875 C 14.703125 -8.597656 15.023438 -6.820312 15.671875 -5.46875 C 16.328125 -4.125 17.601562 -3.148438 19.5 -2.546875 L 22.796875 -1.5 L 22.796875 0 Z M 3 0 "/></g></g></g><g clip-path="url(#742cffcbf5)"><path fill="#f4ece0" d="M 64.421875 182.546875 L 310.523438 182.546875 L 310.523438 212.996094 L 64.421875 212.996094 Z M 64.421875 182.546875 " fill-opacity="1" fill-rule="nonzero"/></g><g fill="#000000" fill-opacity="1"><g transform="translate(84.32296, 203.326875)"><g><path d="M 8.5625 0 L 7.484375 0 L 6.4375 -2.5 L 2.171875 -2.5 L 1.125 0 L 0.03125 0 L 3.6875 -8.609375 L 4.90625 -8.609375 Z M 6.0625 -3.390625 L 4.296875 -7.59375 L 2.546875 -3.390625 Z M 6.0625 -3.390625 "/></g></g></g><g fill="#000000" fill-opacity="1"><g transform="translate(101.636351, 203.326875)"><g><path d="M 8.46875 -8.609375 L 8.46875 0 L 7.34375 0 L 2.03125 -7.265625 L 2.03125 0 L 1.046875 0 L 1.046875 -8.609375 L 2.1875 -8.609375 L 7.5 -1.359375 L 7.5 -8.609375 Z M 8.46875 -8.609375 "/></g></g></g><g fill="#000000" fill-opacity="1"><g transform="translate(119.872469, 203.326875)"><g><path d="M 4.6875 -8.609375 C 5.195312 -8.609375 5.6875 -8.507812 6.15625 -8.3125 C 6.632812 -8.113281 7.054688 -7.832031 7.421875 -7.46875 C 8.222656 -6.644531 8.625 -5.585938 8.625 -4.296875 C 8.625 -3.015625 8.222656 -1.960938 7.421875 -1.140625 C 7.054688 -0.765625 6.632812 -0.476562 6.15625 -0.28125 C 5.6875 -0.09375 5.195312 0 4.6875 0 L 1.046875 0 L 1.046875 -8.609375 Z M 4.640625 -0.921875 C 5.546875 -0.921875 6.28125 -1.253906 6.84375 -1.921875 C 7.382812 -2.566406 7.65625 -3.359375 7.65625 -4.296875 C 7.65625 -5.242188 7.382812 -6.039062 6.84375 -6.6875 C 6.28125 -7.351562 5.546875 -7.6875 4.640625 -7.6875 L 2.03125 -7.6875 L 2.03125 -0.921875 Z M 4.640625 -0.921875 "/></g></g></g><g fill="#000000" fill-opacity="1"><g transform="translate(137.731697, 203.326875)"><g><path d="M 2.03125 0 L 1.046875 0 L 1.046875 -8.609375 L 5.171875 -8.609375 C 6.046875 -8.609375 6.75 -8.363281 7.28125 -7.875 C 7.8125 -7.394531 8.078125 -6.742188 8.078125 -5.921875 C 8.078125 -4.835938 7.628906 -4.101562 6.734375 -3.71875 C 6.484375 -3.601562 6.238281 -3.519531 6 -3.46875 L 8.25 0 L 7.09375 0 L 5.015625 -3.296875 L 2.03125 -3.296875 Z M 2.03125 -4.21875 L 5 -4.21875 C 5.925781 -4.21875 6.5625 -4.503906 6.90625 -5.078125 C 7.03125 -5.296875 7.09375 -5.578125 7.09375 -5.921875 C 7.09375 -6.460938 6.90625 -6.890625 6.53125 -7.203125 C 6.164062 -7.523438 5.675781 -7.6875 5.0625 -7.6875 L 2.03125 -7.6875 Z M 2.03125 -4.21875 "/></g></g></g><g fill="#000000" fill-opacity="1"><g transform="translate(155.13607, 203.326875)"><g><path d="M 2.03125 -7.671875 L 2.03125 -4.78125 L 6.8125 -4.78125 L 6.8125 -3.828125 L 2.03125 -3.828125 L 2.03125 -0.9375 L 7.390625 -0.9375 L 7.390625 0 L 1.046875 0 L 1.046875 -8.609375 L 7.390625 -8.609375 L 7.390625 -7.671875 Z M 2.03125 -7.671875 "/></g></g></g><g fill="#000000" fill-opacity="1"><g transform="translate(171.747689, 203.326875)"><g><path d="M 2.03125 -7.28125 C 1.875 -7.144531 1.765625 -6.988281 1.703125 -6.8125 C 1.648438 -6.632812 1.625 -6.445312 1.625 -6.25 C 1.625 -6.0625 1.707031 -5.882812 1.875 -5.71875 C 2.039062 -5.550781 2.265625 -5.410156 2.546875 -5.296875 C 2.828125 -5.191406 3.144531 -5.09375 3.5 -5 C 3.851562 -4.914062 4.210938 -4.828125 4.578125 -4.734375 C 4.953125 -4.648438 5.316406 -4.546875 5.671875 -4.421875 C 6.023438 -4.304688 6.335938 -4.160156 6.609375 -3.984375 C 7.234375 -3.585938 7.546875 -3.050781 7.546875 -2.375 C 7.546875 -1.570312 7.242188 -0.957031 6.640625 -0.53125 C 6.035156 -0.101562 5.203125 0.109375 4.140625 0.109375 C 2.929688 0.109375 2.007812 -0.144531 1.375 -0.65625 C 0.8125 -1.101562 0.492188 -1.742188 0.421875 -2.578125 L 1.4375 -2.578125 C 1.46875 -1.984375 1.75 -1.53125 2.28125 -1.21875 C 2.75 -0.945312 3.367188 -0.8125 4.140625 -0.8125 C 5.753906 -0.8125 6.5625 -1.320312 6.5625 -2.34375 C 6.5625 -2.6875 6.414062 -2.957031 6.125 -3.15625 C 5.832031 -3.351562 5.46875 -3.515625 5.03125 -3.640625 C 4.59375 -3.773438 4.117188 -3.898438 3.609375 -4.015625 C 3.109375 -4.128906 2.640625 -4.273438 2.203125 -4.453125 C 1.765625 -4.628906 1.398438 -4.863281 1.109375 -5.15625 C 0.816406 -5.445312 0.671875 -5.835938 0.671875 -6.328125 C 0.671875 -7.035156 0.9375 -7.609375 1.46875 -8.046875 C 2.007812 -8.484375 2.820312 -8.703125 3.90625 -8.703125 C 5 -8.703125 5.847656 -8.453125 6.453125 -7.953125 C 6.992188 -7.515625 7.28125 -6.945312 7.3125 -6.25 L 6.3125 -6.25 C 6.226562 -6.957031 5.769531 -7.429688 4.9375 -7.671875 C 4.644531 -7.753906 4.28125 -7.796875 3.84375 -7.796875 C 3.40625 -7.796875 3.035156 -7.742188 2.734375 -7.640625 C 2.429688 -7.546875 2.195312 -7.425781 2.03125 -7.28125 Z M 2.03125 -7.28125 "/></g></g></g><g fill="#000000" fill-opacity="1"><g transform="translate(188.450272, 203.326875)"><g/></g></g><g fill="#000000" fill-opacity="1"><g transform="translate(199.928455, 203.326875)"><g><path d="M 9.421875 -8.609375 L 9.421875 0 L 8.453125 0 L 8.453125 -7.125 L 5.265625 -3.03125 L 2.03125 -7.125 L 2.03125 0 L 1.046875 0 L 1.046875 -8.609375 L 2.1875 -8.609375 L 5.265625 -4.53125 L 8.296875 -8.609375 Z M 9.421875 -8.609375 "/></g></g></g><g fill="#000000" fill-opacity="1"><g transform="translate(219.113272, 203.326875)"><g><path d="M 4.875 -8.703125 C 6.15625 -8.703125 7.207031 -8.273438 8.03125 -7.421875 C 8.84375 -6.585938 9.25 -5.546875 9.25 -4.296875 C 9.25 -3.054688 8.84375 -2.019531 8.03125 -1.1875 C 7.207031 -0.320312 6.15625 0.109375 4.875 0.109375 C 3.59375 0.109375 2.539062 -0.320312 1.71875 -1.1875 C 0.90625 -2.019531 0.5 -3.054688 0.5 -4.296875 C 0.5 -5.546875 0.90625 -6.585938 1.71875 -7.421875 C 2.539062 -8.273438 3.59375 -8.703125 4.875 -8.703125 Z M 4.875 -0.84375 C 5.894531 -0.84375 6.722656 -1.175781 7.359375 -1.84375 C 7.960938 -2.488281 8.265625 -3.304688 8.265625 -4.296875 C 8.265625 -5.296875 7.960938 -6.117188 7.359375 -6.765625 C 6.722656 -7.429688 5.894531 -7.765625 4.875 -7.765625 C 3.851562 -7.765625 3.023438 -7.429688 2.390625 -6.765625 C 1.785156 -6.117188 1.484375 -5.296875 1.484375 -4.296875 C 1.484375 -3.304688 1.785156 -2.488281 2.390625 -1.84375 C 3.023438 -1.175781 3.851562 -0.84375 4.875 -0.84375 Z M 4.875 -0.84375 "/></g></g></g><g fill="#000000" fill-opacity="1"><g transform="translate(237.570313, 203.326875)"><g><path d="M 2.03125 0 L 1.046875 0 L 1.046875 -8.609375 L 2.03125 -8.609375 Z M 2.03125 0 "/></g></g></g><g fill="#000000" fill-opacity="1"><g transform="translate(249.360393, 203.326875)"><g><path d="M 2.03125 -7.28125 C 1.875 -7.144531 1.765625 -6.988281 1.703125 -6.8125 C 1.648438 -6.632812 1.625 -6.445312 1.625 -6.25 C 1.625 -6.0625 1.707031 -5.882812 1.875 -5.71875 C 2.039062 -5.550781 2.265625 -5.410156 2.546875 -5.296875 C 2.828125 -5.191406 3.144531 -5.09375 3.5 -5 C 3.851562 -4.914062 4.210938 -4.828125 4.578125 -4.734375 C 4.953125 -4.648438 5.316406 -4.546875 5.671875 -4.421875 C 6.023438 -4.304688 6.335938 -4.160156 6.609375 -3.984375 C 7.234375 -3.585938 7.546875 -3.050781 7.546875 -2.375 C 7.546875 -1.570312 7.242188 -0.957031 6.640625 -0.53125 C 6.035156 -0.101562 5.203125 0.109375 4.140625 0.109375 C 2.929688 0.109375 2.007812 -0.144531 1.375 -0.65625 C 0.8125 -1.101562 0.492188 -1.742188 0.421875 -2.578125 L 1.4375 -2.578125 C 1.46875 -1.984375 1.75 -1.53125 2.28125 -1.21875 C 2.75 -0.945312 3.367188 -0.8125 4.140625 -0.8125 C 5.753906 -0.8125 6.5625 -1.320312 6.5625 -2.34375 C 6.5625 -2.6875 6.414062 -2.957031 6.125 -3.15625 C 5.832031 -3.351562 5.46875 -3.515625 5.03125 -3.640625 C 4.59375 -3.773438 4.117188 -3.898438 3.609375 -4.015625 C 3.109375 -4.128906 2.640625 -4.273438 2.203125 -4.453125 C 1.765625 -4.628906 1.398438 -4.863281 1.109375 -5.15625 C 0.816406 -5.445312 0.671875 -5.835938 0.671875 -6.328125 C 0.671875 -7.035156 0.9375 -7.609375 1.46875 -8.046875 C 2.007812 -8.484375 2.820312 -8.703125 3.90625 -8.703125 C 5 -8.703125 5.847656 -8.453125 6.453125 -7.953125 C 6.992188 -7.515625 7.28125 -6.945312 7.3125 -6.25 L 6.3125 -6.25 C 6.226562 -6.957031 5.769531 -7.429688 4.9375 -7.671875 C 4.644531 -7.753906 4.28125 -7.796875 3.84375 -7.796875 C 3.40625 -7.796875 3.035156 -7.742188 2.734375 -7.640625 C 2.429688 -7.546875 2.195312 -7.425781 2.03125 -7.28125 Z M 2.03125 -7.28125 "/></g></g></g><g fill="#000000" fill-opacity="1"><g transform="translate(266.062975, 203.326875)"><g><path d="M 2.03125 -7.671875 L 2.03125 -4.78125 L 6.8125 -4.78125 L 6.8125 -3.828125 L 2.03125 -3.828125 L 2.03125 -0.9375 L 7.390625 -0.9375 L 7.390625 0 L 1.046875 0 L 1.046875 -8.609375 L 7.390625 -8.609375 L 7.390625 -7.671875 Z M 2.03125 -7.671875 "/></g></g></g><g fill="#000000" fill-opacity="1"><g transform="translate(282.6746, 203.326875)"><g><path d="M 2.03125 -7.28125 C 1.875 -7.144531 1.765625 -6.988281 1.703125 -6.8125 C 1.648438 -6.632812 1.625 -6.445312 1.625 -6.25 C 1.625 -6.0625 1.707031 -5.882812 1.875 -5.71875 C 2.039062 -5.550781 2.265625 -5.410156 2.546875 -5.296875 C 2.828125 -5.191406 3.144531 -5.09375 3.5 -5 C 3.851562 -4.914062 4.210938 -4.828125 4.578125 -4.734375 C 4.953125 -4.648438 5.316406 -4.546875 5.671875 -4.421875 C 6.023438 -4.304688 6.335938 -4.160156 6.609375 -3.984375 C 7.234375 -3.585938 7.546875 -3.050781 7.546875 -2.375 C 7.546875 -1.570312 7.242188 -0.957031 6.640625 -0.53125 C 6.035156 -0.101562 5.203125 0.109375 4.140625 0.109375 C 2.929688 0.109375 2.007812 -0.144531 1.375 -0.65625 C 0.8125 -1.101562 0.492188 -1.742188 0.421875 -2.578125 L 1.4375 -2.578125 C 1.46875 -1.984375 1.75 -1.53125 2.28125 -1.21875 C 2.75 -0.945312 3.367188 -0.8125 4.140625 -0.8125 C 5.753906 -0.8125 6.5625 -1.320312 6.5625 -2.34375 C 6.5625 -2.6875 6.414062 -2.957031 6.125 -3.15625 C 5.832031 -3.351562 5.46875 -3.515625 5.03125 -3.640625 C 4.59375 -3.773438 4.117188 -3.898438 3.609375 -4.015625 C 3.109375 -4.128906 2.640625 -4.273438 2.203125 -4.453125 C 1.765625 -4.628906 1.398438 -4.863281 1.109375 -5.15625 C 0.816406 -5.445312 0.671875 -5.835938 0.671875 -6.328125 C 0.671875 -7.035156 0.9375 -7.609375 1.46875 -8.046875 C 2.007812 -8.484375 2.820312 -8.703125 3.90625 -8.703125 C 5 -8.703125 5.847656 -8.453125 6.453125 -7.953125 C 6.992188 -7.515625 7.28125 -6.945312 7.3125 -6.25 L 6.3125 -6.25 C 6.226562 -6.957031 5.769531 -7.429688 4.9375 -7.671875 C 4.644531 -7.753906 4.28125 -7.796875 3.84375 -7.796875 C 3.40625 -7.796875 3.035156 -7.742188 2.734375 -7.640625 C 2.429688 -7.546875 2.195312 -7.425781 2.03125 -7.28125 Z M 2.03125 -7.28125 "/></g></g></g><g fill="#000000" fill-opacity="1"><g transform="translate(138.088389, 265.483517)"><g><path d="M 3.015625 -0.515625 C 3.390625 -0.515625 3.71875 -0.609375 4 -0.796875 C 4.289062 -0.992188 4.503906 -1.253906 4.640625 -1.578125 L 5.265625 -1.578125 C 5.097656 -1.078125 4.8125 -0.6875 4.40625 -0.40625 C 3.96875 -0.09375 3.457031 0.0625 2.875 0.0625 C 2.101562 0.0625 1.472656 -0.203125 0.984375 -0.734375 C 0.535156 -1.234375 0.3125 -1.867188 0.3125 -2.640625 C 0.3125 -3.421875 0.535156 -4.0625 0.984375 -4.5625 C 1.472656 -5.09375 2.101562 -5.359375 2.875 -5.359375 C 3.457031 -5.359375 3.96875 -5.203125 4.40625 -4.890625 C 4.8125 -4.609375 5.097656 -4.21875 5.265625 -3.71875 L 4.640625 -3.71875 C 4.503906 -4.039062 4.289062 -4.296875 4 -4.484375 C 3.71875 -4.679688 3.382812 -4.78125 3 -4.78125 C 2.625 -4.78125 2.3125 -4.722656 2.0625 -4.609375 C 1.8125 -4.503906 1.601562 -4.351562 1.4375 -4.15625 C 1.082031 -3.769531 0.90625 -3.265625 0.90625 -2.640625 C 0.90625 -2.023438 1.082031 -1.523438 1.4375 -1.140625 C 1.789062 -0.722656 2.316406 -0.515625 3.015625 -0.515625 Z M 3.015625 -0.515625 "/></g></g></g><g fill="#000000" fill-opacity="1"><g transform="translate(148.40075, 265.483517)"><g><path d="M 5.265625 0 L 4.609375 0 L 3.953125 -1.53125 L 1.34375 -1.53125 L 0.6875 0 L 0.03125 0 L 2.265625 -5.296875 L 3.03125 -5.296875 Z M 3.734375 -2.09375 L 2.640625 -4.671875 L 1.5625 -2.09375 Z M 3.734375 -2.09375 "/></g></g></g><g fill="#000000" fill-opacity="1"><g transform="translate(158.489106, 265.483517)"><g><path d="M 1.25 0 L 0.640625 0 L 0.640625 -5.296875 L 3.1875 -5.296875 C 3.71875 -5.296875 4.148438 -5.144531 4.484375 -4.84375 C 4.804688 -4.550781 4.96875 -4.148438 4.96875 -3.640625 C 4.96875 -2.972656 4.691406 -2.519531 4.140625 -2.28125 C 3.984375 -2.21875 3.832031 -2.171875 3.6875 -2.140625 L 5.078125 0 L 4.375 0 L 3.09375 -2.03125 L 1.25 -2.03125 Z M 1.25 -2.59375 L 3.078125 -2.59375 C 3.640625 -2.59375 4.03125 -2.769531 4.25 -3.125 C 4.332031 -3.257812 4.375 -3.429688 4.375 -3.640625 C 4.375 -3.972656 4.257812 -4.238281 4.03125 -4.4375 C 3.800781 -4.632812 3.492188 -4.734375 3.109375 -4.734375 L 1.25 -4.734375 Z M 1.25 -2.59375 "/></g></g></g><g fill="#000000" fill-opacity="1"><g transform="translate(168.633463, 265.483517)"><g><path d="M 1.25 0 L 0.640625 0 L 0.640625 -5.296875 L 3.03125 -5.296875 C 3.59375 -5.296875 4.039062 -5.140625 4.375 -4.828125 C 4.695312 -4.523438 4.859375 -4.113281 4.859375 -3.59375 C 4.859375 -3.070312 4.691406 -2.65625 4.359375 -2.34375 C 4.035156 -2.039062 3.59375 -1.890625 3.03125 -1.890625 L 1.25 -1.890625 Z M 1.25 -4.734375 L 1.25 -2.453125 L 2.984375 -2.453125 C 3.398438 -2.453125 3.710938 -2.550781 3.921875 -2.75 C 4.140625 -2.957031 4.25 -3.238281 4.25 -3.59375 C 4.25 -3.945312 4.140625 -4.222656 3.921875 -4.421875 C 3.710938 -4.628906 3.398438 -4.734375 2.984375 -4.734375 Z M 1.25 -4.734375 "/></g></g></g><g fill="#000000" fill-opacity="1"><g transform="translate(178.449807, 265.483517)"><g><path d="M 1.25 0 L 0.640625 0 L 0.640625 -5.296875 L 1.25 -5.296875 Z M 1.25 0 "/></g></g></g><g fill="#000000" fill-opacity="1"><g transform="translate(185.138035, 265.483517)"><g><path d="M 5.21875 -5.296875 L 5.21875 0 L 4.515625 0 L 1.25 -4.46875 L 1.25 0 L 0.640625 0 L 0.640625 -5.296875 L 1.34375 -5.296875 L 4.609375 -0.84375 L 4.609375 -5.296875 Z M 5.21875 -5.296875 "/></g></g></g><g fill="#000000" fill-opacity="1"><g transform="translate(195.794414, 265.483517)"><g><path d="M 4.40625 -4.71875 L 2.5625 -4.71875 L 2.5625 0 L 1.953125 0 L 1.953125 -4.71875 L 0.109375 -4.71875 L 0.109375 -5.296875 L 4.40625 -5.296875 Z M 4.40625 -4.71875 "/></g></g></g><g fill="#000000" fill-opacity="1"><g transform="translate(205.106737, 265.483517)"><g><path d="M 1.25 -4.71875 L 1.25 -2.9375 L 4.1875 -2.9375 L 4.1875 -2.359375 L 1.25 -2.359375 L 1.25 -0.578125 L 4.546875 -0.578125 L 4.546875 0 L 0.640625 0 L 0.640625 -5.296875 L 4.546875 -5.296875 L 4.546875 -4.71875 Z M 1.25 -4.71875 "/></g></g></g><g fill="#000000" fill-opacity="1"><g transform="translate(214.763075, 265.483517)"><g><path d="M 1.25 0 L 0.640625 0 L 0.640625 -5.296875 L 3.1875 -5.296875 C 3.71875 -5.296875 4.148438 -5.144531 4.484375 -4.84375 C 4.804688 -4.550781 4.96875 -4.148438 4.96875 -3.640625 C 4.96875 -2.972656 4.691406 -2.519531 4.140625 -2.28125 C 3.984375 -2.21875 3.832031 -2.171875 3.6875 -2.140625 L 5.078125 0 L 4.375 0 L 3.09375 -2.03125 L 1.25 -2.03125 Z M 1.25 -2.59375 L 3.078125 -2.59375 C 3.640625 -2.59375 4.03125 -2.769531 4.25 -3.125 C 4.332031 -3.257812 4.375 -3.429688 4.375 -3.640625 C 4.375 -3.972656 4.257812 -4.238281 4.03125 -4.4375 C 3.800781 -4.632812 3.492188 -4.734375 3.109375 -4.734375 L 1.25 -4.734375 Z M 1.25 -2.59375 "/></g></g></g><g fill="#000000" fill-opacity="1"><g transform="translate(224.907435, 265.483517)"><g><path d="M 1.25 0 L 0.640625 0 L 0.640625 -5.296875 L 1.25 -5.296875 Z M 1.25 0 "/></g></g></g><g fill="#000000" fill-opacity="1"><g transform="translate(231.595662, 265.483517)"><g><path d="M 5.265625 0 L 4.609375 0 L 3.953125 -1.53125 L 1.34375 -1.53125 L 0.6875 0 L 0.03125 0 L 2.265625 -5.296875 L 3.03125 -5.296875 Z M 3.734375 -2.09375 L 2.640625 -4.671875 L 1.5625 -2.09375 Z M 3.734375 -2.09375 "/></g></g></g></svg>